<?xml version="1.0" standalone="no"?>
<!DOCTYPE svg PUBLIC "-//W3C//DTD SVG 20010904//EN"
 "http://www.w3.org/TR/2001/REC-SVG-20010904/DTD/svg10.dtd">
<svg version="1.0" xmlns="http://www.w3.org/2000/svg"
 width="512.000000pt" height="512.000000pt" viewBox="0 0 512.000000 512.000000"
 preserveAspectRatio="xMidYMid meet">

<g transform="translate(0.000000,512.000000) scale(0.100000,-0.100000)"
fill="#000000" stroke="none">
<path d="M2420 5110 c-532 -69 -955 -469 -1045 -989 -19 -105 -19 -311 0 -414
86 -485 452 -861 947 -974 102 -23 374 -23 476 0 251 57 463 175 629 350 222
233 333 512 333 833 0 324 -120 612 -350 844 -174 176 -374 284 -619 335 -91
19 -283 27 -371 15z m250 -301 c143 -17 309 -82 420 -164 59 -43 160 -147 205
-210 164 -230 210 -526 123 -795 -95 -296 -333 -520 -638 -601 -120 -32 -319
-32 -440 0 -181 47 -365 165 -479 306 -68 85 -141 225 -172 330 -27 90 -36
277 -20 381 70 429 437 749 876 763 22 0 79 -4 125 -10z"/>
<path d="M2500 4514 c-185 -21 -375 -145 -463 -304 -191 -345 -16 -760 369
-876 40 -12 91 -18 159 -18 85 1 113 5 185 30 106 37 184 88 254 165 216 239
206 603 -23 829 -125 123 -315 192 -481 174z m185 -328 c70 -32 141 -113 161
-184 57 -194 -86 -386 -286 -386 -258 0 -395 303 -223 494 65 73 126 100 223
100 58 0 87 -6 125 -24z"/>
<path d="M1200 2705 c-8 -2 -49 -9 -90 -15 -258 -41 -521 -179 -715 -374 -192
-194 -309 -410 -367 -679 -29 -135 -31 -407 -5 -539 55 -273 181 -511 372
-704 192 -193 405 -307 678 -365 79 -17 137 -22 257 -22 240 -1 385 34 640
153 246 115 380 145 630 138 228 -7 351 -38 555 -140 211 -107 395 -151 625
-151 168 -1 267 14 414 60 456 143 805 542 903 1031 24 121 24 394 0 515 -115
574 -552 994 -1127 1082 -268 41 -528 -3 -811 -139 -211 -101 -343 -135 -549
-143 -232 -9 -409 30 -646 142 -129 62 -252 106 -360 130 -63 14 -366 30 -404
20z m287 -306 c97 -13 227 -56 335 -110 266 -134 509 -187 807 -176 246 9 397
49 661 172 74 35 167 72 205 84 369 109 769 -3 1040 -290 332 -353 377 -916
105 -1320 -209 -309 -600 -493 -958 -451 -137 16 -254 53 -422 132 -252 119
-433 161 -695 161 -264 1 -457 -43 -705 -161 -246 -117 -426 -155 -623 -132
-259 31 -470 134 -644 315 -130 136 -212 282 -260 465 -23 85 -26 117 -26 257
0 179 11 248 67 395 88 237 266 435 496 554 191 99 401 135 617 105z"/>
<path d="M1199 2096 c-258 -54 -470 -240 -554 -485 -125 -369 33 -768 370
-931 109 -53 197 -73 325 -73 138 0 200 17 390 107 190 90 262 116 414 151
143 32 299 42 511 33 245 -9 441 -60 668 -174 208 -103 342 -134 495 -115 178
23 308 86 433 210 149 149 208 287 217 506 4 111 1 144 -17 215 -86 347 -409
590 -751 567 -123 -9 -185 -28 -370 -117 -309 -147 -490 -185 -845 -177 -316
7 -463 43 -757 186 -79 39 -170 77 -203 86 -84 22 -245 28 -326 11z m223 -297
c29 -6 97 -33 151 -60 227 -115 435 -183 657 -215 164 -23 570 -15 715 15 165
34 321 88 496 172 192 92 258 109 364 91 217 -36 365 -216 365 -440 0 -43 -5
-97 -11 -121 -39 -170 -181 -302 -356 -330 -102 -16 -166 -1 -331 77 -348 166
-680 236 -1032 217 -315 -16 -528 -71 -830 -215 -100 -48 -165 -72 -210 -79
-182 -29 -363 66 -445 232 -170 344 106 730 467 656z"/>
</g>
</svg>
